<svg width="18" height="24" viewBox="0 0 18 24" fill="none" xmlns="http://www.w3.org/2000/svg">
<path d="M15.942 5.62697H13.4197V4.41967C13.4197 1.98269 11.437 0 8.99999 0C6.56301 0 4.58032 1.98269 4.58032 4.41967V5.62697H2.05802L0.353577 24H17.6465L15.942 5.62697ZM5.60159 4.41967C5.60159 2.54571 7.12599 1.02127 8.99999 1.02127C10.8741 1.02127 12.3984 2.54571 12.3984 4.41967V5.62697H5.60159V4.41967ZM2.98853 6.64824H4.58027V9.64771H3.99683V10.669H6.18494V9.64771H5.60154V6.64824H12.3984V9.64771H11.8149V10.669H14.0032V9.64771H13.4197V6.64824H15.0115L16.5264 22.9787H1.47359L2.98853 6.64824Z" fill="black"/>
</svg>
